<svg xmlns="http://www.w3.org/2000/svg" viewBox="0 0 16 16"><path d="M2.5 1C1.675781 1 1 1.675781 1 2.5L1 12.5C1 13.324219 1.675781 14 2.5 14L12.5 14C13.324219 14 14 13.324219 14 12.5L14 2.5C14 1.675781 13.324219 1 12.5 1 Z M 2.5 2L5 2L5 5L2 5L2 2.5C2 2.21875 2.21875 2 2.5 2 Z M 6 2L9 2L9 5L6 5 Z M 10 2L12.5 2C12.78125 2 13 2.21875 13 2.5L13 5L10 5 Z M 2 6L5 6L5 9L2 9 Z M 6 6L9 6L9 9L6 9 Z M 10 6L13 6L13 9L10 9 Z M 2 10L5 10L5 13L2.5 13C2.21875 13 2 12.78125 2 12.5 Z M 6 10L9 10L9 13L6 13 Z M 10 10L13 10L13 12.5C13 12.78125 12.78125 13 12.5 13L10 13Z"/></svg>